PathFileType	4	(X/Y/Z)	C:/Users/beibeiliu/ov580/test_trc/User3\sequence.16_training_dense_left.trc
DataRate	CameraRate	NumFrames	NumMarkers	Units	OrigDataRate	OrigDataStartFrame	OrigNumFrames
120	120	17	19	mm	120	30	58
Frame#	Time	ThumbCMC			ThumbMCP			ThumbIP			ThumbTip			IndexMCP			IndexPIP			IndexTip			MiddleMCP			MiddlePIP			MiddleTip			RingMCP			RingPIP			RingTip			PinkyMCP			PinkyPIP			PinkyTip			BackHand1			BackHand2			BackHand3	
		X0	Y0	Z0	X1	Y1	Z1	X2	Y2	Z2	X3	Y3	Z3	X4	Y4	Z4	X5	Y5	Z5	X6	Y6	Z6	X7	Y7	Z7	X8	Y8	Z8	X9	Y9	Z9	X10	Y10	Z10	X11	Y11	Z11	X12	Y12	Z12	X13	Y13	Z13	X14	Y14	Z14	X15	Y15	Z15	X16	Y16	Z16	X17	Y17	Z17	X18	Y18	Z18	
29	0.241667	-246.089	-41.3585	10.6226	-241.226	-35.6332	-26.2444	-235.316	-34.6336	-58.0723	-212.257	-48.3594	-71.9613	-264.903	-93.0771	-43.4907	-274.13	-92.0252	-73.9775	-273.827	-76.5722	-101.286	-248.993	-112.933	-44.9504	-257.875	-116.992	-76.2541	-256.877	-98.6174	-109.861	-228.468	-107.667	-46.9251	-228.345	-101.983	-77.2254	-219.357	-72.6704	-85.8529	-206.044	-95.823	-42.5783	-204.505	-84.361	-70.0003	-204.342	-55.4483	-70.6092	-218.241	-95.5555	6.05496	-208.727	-85.9878	30.3302	-243.424	-82.0208	21.5876	
30	0.25	-255.95	-35.4611	11.507	-252.423	-25.2941	-26.1249	-242.669	-31.4065	-51.6923	-226.954	-50.6508	-66.6285	-296.678	-75.5865	-40.0742	-299.574	-75.1079	-66.372	-294.003	-59.9767	-96.1731	-280.668	-98.3	-36.915	-293.201	-102.604	-69.4184	-288.5	-87.4782	-99.8251	-261.895	-103.14	-41.5691	-259.486	-97.8849	-72.9226	-250.079	-68.5744	-81.7004	-234.678	-97.9352	-40.5813	-231.899	-89.5876	-64.9762	-223.827	-57.7792	-71.1291	-242.702	-96.6026	7.42263	-229.466	-85.8202	34.435	-263.384	-73.1657	25.2238	
31	0.258333	-260.851	-17.9193	14.86	-253.016	-9.50291	-24.7924	-248.056	-19.843	-50.6051	-239.035	-40.9494	-69.4234	-311.757	-45.9724	-38.6836	-317.434	-37.9159	-64.8811	-307.776	-26.2427	-91.4155	-311.146	-70.0754	-36.6091	-321.635	-68.4915	-66.6819	-314.33	-54.7761	-99.325	-287.714	-82.3683	-37.7351	-292.093	-78.2807	-66.4279	-270.231	-55.6871	-81.0611	-261.131	-87.6872	-35.9018	-258.416	-79.9394	-65.2272	-244.163	-58.6717	-71.5556	-269.546	-80.4246	10.6654	-253.376	-73.7572	36.8143	-282.667	-48.5851	26.3339	
32	0.266667	-253.182	-2.00918	13.5175	-244.319	1.18801	-23.0728	-243.182	-7.97471	-53.9316	-246.528	-33.2292	-66.4467	-310.017	-4.02505	-32.8042	-312.217	1.54944	-64.8538	-300.336	6.34233	-90.5559	-319.122	-30.8628	-32.3015	-333.348	-25.0124	-61.8998	-320.513	-14.5628	-94.961	-307.474	-46.5757	-34.2618	-310.163	-45.1257	-64.6142	-281.961	-34.7486	-79.4199	-285.309	-65.284	-36.254	-282.511	-54.9232	-61.926	-256.279	-42.9045	-71.066	-287.467	-56.1539	11.0512	-268.843	-55.9526	37.4298	-282.706	-26.779	27.1701	
33	0.275	-230.032	8.99326	14.1123	-225.275	8.52115	-25.6214	-234.305	-0.571945	-57.5034	-245.901	-18.7689	-67.2395	-285.881	30.1084	-32.1503	-286.313	38.6327	-61.9373	-273.612	39.4745	-88.0579	-307.298	18.136	-29.2057	-317.43	28.3145	-56.1831	-305.118	31.6556	-88.7055	-304.338	-2.57012	-33.3479	-305.014	0.174323	-61.6967	-274.128	-6.27318	-76.7378	-295.76	-28.531	-37.3068	-286.329	-22.1	-60.4193	-261.879	-27.2227	-73.4815	-287.554	-20.6292	13.2944	-274.303	-32.3382	35.2163	-271.11	0.738626	28.8566	
34	0.283333	-207.815	7.15693	13.3418	-201.65	9.64553	-26.0518	-214.871	8.48383	-54.1854	-237.524	-1.32211	-66.9001	-248.185	56.0175	-25.9306	-246.653	65.4511	-59.5201	-239.432	63.4661	-81.3434	-275.494	53.5485	-22.8287	-281.792	68.3132	-51.1073	-269.1	67.2248	-86.0528	-282.542	30.1814	-29.0217	-278.114	38.8908	-60.4511	-254.598	18.3788	-74.5157	-282.488	2.56494	-31.6267	-273.487	9.65479	-60.4559	-250.335	-2.45631	-71.5967	-270.693	4.90731	14.8499	-261.697	-16.2473	37.2515	-246.558	15.2361	29.5832	
35	0.291667	-186.442	2.25061	11.0414	-185.03	11.3652	-28.4857	-197.298	15.5173	-53.8376	-221.204	12.6736	-66.6944	-212.343	68.1705	-22.7818	-205.3	80.0642	-54.3492	-200.841	75.2152	-77.3126	-243.561	69.916	-19.948	-240.684	89.9577	-45.0711	-230.722	89.8087	-79.5493	-253.746	51.4011	-28.3799	-247.421	58.9895	-59.935	-230.75	36.6994	-73.4178	-261.398	30.3434	-35.288	-250.356	30.8939	-61.5006	-236.111	11.6538	-72.3802	-252.243	21.2242	13.1433	-248.928	-2.98318	33.847	-221.012	19.2564	28.9315	
36	0.3	-168.269	-3.81564	7.04006	-165.281	4.19762	-30.9606	-176.071	10.7159	-57.1326	-200.462	14.1441	-74.256	-183.888	63.3637	-30.3456	-176.959	74.2518	-56.6038	-171.109	66.6661	-84.6735	-207.952	70.7654	-24.1309	-202.864	91.7569	-47.4693	-199.061	90.1376	-83.83	-223.452	55.2379	-33.0786	-217.941	63.236	-62.2722	-202.826	32.8919	-78.1205	-233.722	37.0421	-40.985	-224.633	34.7776	-65.0492	-213.996	8.4886	-75.7948	-230.386	24.2491	8.56212	-230.148	5.37287	28.6447	-198.954	20.1201	23.484	
37	0.308333	-153.532	-14.552	-0.72175	-148.711	-13.648	-38.6967	-160.391	-11.2288	-64.1448	-185.984	-6.43797	-78.5259	-157.929	47.4404	-50.7183	-150.416	50.6534	-78.884	-144.89	36.1401	-103.12	-182.006	56.2947	-41.5569	-175.711	74.4631	-68.7066	-172.454	69.7487	-103.091	-200.104	44.6599	-48.0754	-191.451	44.8429	-80.8689	-189.051	10.669	-90.0643	-216.762	25.6818	-47.8936	-209.792	18.9052	-76.0199	-198.346	-5.65971	-80.9061	-203.494	21.2267	0.734179	-213.146	6.1146	22.3061	-173.076	17.0695	12.8954	
38	0.316667	-140.576	-27.9606	-3.70461	-134.995	-42.2922	-40.8995	-151.262	-42.527	-68.7852	-177.316	-38.8479	-73.2543	-139.923	16.6519	-64.6626	-131.894	11.3911	-97.3156	-136.11	-8.10572	-118.015	-158.092	31.4956	-61.5971	-156.462	41.2592	-93.6424	-156.338	29.5546	-128.992	-179.203	21.6442	-64.9296	-179.15	13.6523	-95.2567	-178.451	-19.6104	-98.0632	-199.236	4.25319	-60.4579	-199.079	-10.7961	-83.2561	-191.795	-42.4493	-76.2303	-188.237	11.184	-12.0666	-188.691	3.99405	14.4122	-153.865	7.91739	2.10841	
39	0.325	-129.912	-38.0841	-3.2635	-128.474	-60.9709	-31.373	-146.781	-70.7497	-60.7585	-176.43	-65.3847	-65.6239	-131.297	-14.7305	-79.5399	-126.379	-26.3276	-102.442	-128.395	-53.9748	-119.278	-153.883	3.83639	-79.1366	-150.218	0.996086	-110.536	-151.647	-15.7918	-136.41	-170.553	-7.52901	-73.4819	-174.065	-24.9343	-100.443	-174.817	-58.9764	-93.4282	-192.1	-22.946	-66.0944	-190.799	-46.2157	-79.7055	-183.614	-69.4947	-60.7732	-173.513	0.8044	-20.5702	-178.8	-1.46054	7.24551	-141.461	-3.047	-5.43175	
40	0.333333	-116.363	-44.561	-0.262293	-118.175	-73.9127	-22.7373	-133.569	-92.7715	-44.583	-162.937	-94.1113	-51.0336	-125.761	-39.5746	-79.3314	-117.911	-59.5036	-97.9693	-119.204	-85.12	-107.403	-148.934	-25.5233	-82.4138	-145.301	-35.2371	-110.978	-139.279	-62.5533	-133.256	-168.341	-36.7346	-74.7481	-166.403	-59.6986	-95.8836	-159.758	-91.2774	-79.7998	-182.985	-50.0807	-59.1818	-181.54	-78.1397	-66.6588	-168.449	-94.1729	-44.52	-173.296	-15.2329	-28.2453	-173.414	-8.54444	2.91136	-140.023	-8.89711	-11.6092	
41	0.341667	-111.484	-38.7334	5.30735	-104.774	-72.2474	-6.2362	-113.631	-102.785	-26.7743	-140.844	-109.089	-31.5309	-116.361	-53.2501	-69.5974	-105.181	-73.2844	-86.1361	-98.6151	-100.611	-90.1401	-143.585	-50.9514	-79.4578	-134.559	-66.5528	-104.164	-125.957	-97.4146	-117.77	-160.502	-64.2581	-67.2936	-147.89	-89.2318	-82.2859	-134.671	-112.642	-62.2055	-172.9	-80.8298	-50.1565	-158.301	-105.02	-47.7544	-146.33	-109.612	-18.1645	-170.503	-33.5145	-25.9051	-173.042	-21.1197	1.25609	-140.804	-14.9888	-11.8513	
42	0.35	-117.87	-28.3259	5.36424	-93.4324	-55.9614	-1.78798	-97.2632	-87.8074	-14.7059	-113.037	-105.321	-15.7343	-112.918	-50.9684	-65.0742	-92.7251	-72.7688	-78.3079	-73.0911	-94.5093	-77.3783	-136.734	-64.5478	-73.762	-123.185	-81.5813	-94.2195	-95.9861	-105.666	-102.615	-147.779	-80.3036	-57.2775	-128.429	-104.875	-66.4366	-106.152	-113.509	-44.8468	-153.371	-96.6823	-36.8278	-129.703	-111.522	-31.6998	-117.528	-104.826	-5.20588	-171.957	-47.481	-19.8662	-180.822	-35.2185	4.68879	-153.101	-19.2985	-12.4181	
43	0.358333	-132.887	-10.0438	2.5431	-102.434	-29.4257	-5.17343	-86.6413	-54.5636	-12.388	-93.8477	-84.9314	-12.7737	-121.395	-45.6434	-65.7537	-96.9266	-50.2003	-79.8791	-71.2179	-62.0922	-78.7586	-137.737	-63.5372	-66.8793	-114.672	-72.8363	-92.1245	-85.1561	-86.1671	-96.5638	-136.342	-79.6675	-54.6641	-112.285	-92.6559	-62.1586	-86.0769	-91.9191	-38.0293	-133.517	-91.6017	-31.4672	-107.769	-97.1915	-25.4616	-96.9996	-83.2307	-3.33143	-171.703	-56.1638	-19.0744	-187.318	-48.6701	8.35043	-168.602	-20.1347	-13.5469	
44	0.366667	-156.641	-0.144997	-0.186539	-117.046	0.698721	-11.9019	-90.1917	-19.7842	-22.9807	-88.8663	-45.9113	-18.0409	-134.783	-27.234	-68.9981	-110.577	-27.3309	-85.2548	-79.1705	-25.1502	-85.5176	-140.636	-50.0971	-68.0889	-119.304	-55.7112	-91.0172	-83.7734	-52.0325	-101.869	-129.896	-68.1611	-54.8165	-103.99	-69.2501	-64.2564	-78.5831	-54.416	-43.7677	-124.327	-74.4911	-28.2075	-93.8388	-66.4796	-26.8544	-90.8914	-43.3318	-8.13922	-170.357	-57.4355	-14.9501	-185.766	-50.3274	8.14561	-182.661	-23.7725	-18.4163	
45	0.375	-172.133	4.31567	-5.92675	-136.604	14.3124	-20.1442	-110.077	5.58039	-27.2532	-93.4019	-12.563	-26.3901	-148.133	-18.8512	-74.4717	-125.224	-8.67997	-92.3203	-99.9865	2.93562	-95.6747	-144.083	-43.8874	-74.057	-120.596	-43.0088	-97.0476	-94.3228	-29.2157	-109.096	-132.435	-52.9678	-57.517	-105.844	-48.0931	-70.2614	-83.803	-22.9463	-53.7035	-115.127	-58.0317	-34.3142	-92.7855	-42.8264	-33.3506	-92.5529	-19.1491	-18.3807	-165.768	-59.672	-13.2742	-184.417	-55.0455	10.4433	-190.26	-30.1619	-15.7096	
